<?xml version="1.0" encoding="UTF-8"?>
<svg width="16px" height="16px" viewBox="0 0 16 16" version="1.1" xmlns="http://www.w3.org/2000/svg" xmlns:xlink="http://www.w3.org/1999/xlink">
    <title>file_type_wasm</title>
    <g id="file_type_wasm" stroke="none" stroke-width="1" fill="none" fill-rule="evenodd">
        <path d="M13.482,15 L2.518,15 C1.68,14.999 1.001,14.32 1,13.482 L1,2.518 C1.001,1.68 1.68,1.001 2.518,1 L13.482,1 C14.32,1.001 14.999,1.68 15,2.518 L15,13.482 C14.999,14.32 14.32,14.999 13.482,15 Z M2.775,2 C2.347,2.001 2.001,2.347 2,2.775 L2,13.225 C2.001,13.653 2.347,13.999 2.775,14 L13.225,14 C13.653,13.999 13.999,13.653 14,13.225 L14,2.775 C13.999,2.347 13.653,2.001 13.225,2 L2.775,2 Z" id="Combined-Shape" fill="#5B4DFF" fill-rule="nonzero"></path>
        <polygon id="Path" fill="#5B4DFF" fill-rule="nonzero" points="6.558 13.089 5.732 9.005 5.718 9.005 4.826 13.089 3.688 13.089 2.4 7.089 3.523 7.089 4.291 11.173 4.305 11.173 5.231 7.089 6.281 7.089 7.112 11.223 7.126 11.223 8.003 7.089 9.105 7.089 7.674 13.089"></polygon>
        <path d="M12.575,13.089 L12.192,11.754 L10.172,11.754 L9.878,13.089 L8.755,13.089 L10.207,7.089 L11.979,7.089 L13.744,13.089 L12.575,13.089 Z M10.883,8.568 L10.393,10.769 L11.918,10.769 L11.355,8.568 L10.883,8.568 Z" id="Shape" fill="#5B4DFF" fill-rule="nonzero"></path>
    </g>
</svg>